<?xml version="1.0" encoding="utf-8"?>
<!-- Generator: Adobe Illustrator 23.0.3, SVG Export Plug-In . SVG Version: 6.00 Build 0)  -->
<svg version="1.1" id="Layer_1" xmlns="http://www.w3.org/2000/svg" xmlns:xlink="http://www.w3.org/1999/xlink" x="0px" y="0px"
	 viewBox="0 0 512 512" style="enable-background:new 0 0 512 512;" xml:space="preserve">
<style type="text/css">
	.st0{fill:#AA5821;}
</style>
<path class="st0" d="M256,0C114.6,0,0,114.6,0,256s114.6,256,256,256s256-114.6,256-256S397.4,0,256,0z M256,472
	c-119.3,0-216-96.7-216-216S136.7,40,256,40s216,96.7,216,216S375.3,472,256,472z"/>
<path class="st0" d="M327.1,384c5.7,0,56.9-37.8,56.9-42.7s-57.3-40.9-62.2-40.9s-21.6,19.9-26.1,22.2c-4.5,2.2-32.5,1.4-63.7-29.8
	s-41.9-67.1-41.9-72.8s26-23.1,26.8-27.2s-34.3-64.9-40-64.9s-48.9,52.6-48.9,57s4,60.7,75.2,131.9S321.4,383.9,327.1,384z"/>
</svg>
